<?xml version="1.0" standalone="no"?>
<!DOCTYPE svg PUBLIC "-//W3C//DTD SVG 20010904//EN"
 "http://www.w3.org/TR/2001/REC-SVG-20010904/DTD/svg10.dtd">
<svg version="1.0" xmlns="http://www.w3.org/2000/svg"
 width="512.000000pt" height="512.000000pt" viewBox="0 0 512.000000 512.000000"
 preserveAspectRatio="xMidYMid meet">

<g transform="translate(0.000000,512.000000) scale(0.100000,-0.100000)"
fill="#000000" stroke="none">
<path d="M1600 3907 c-27 -8 -175 -150 -637 -611 -348 -347 -610 -615 -619
-635 -24 -49 -29 -113 -14 -168 12 -45 55 -91 619 -655 647 -649 634 -638 731
-638 126 0 240 114 240 240 0 93 8 84 -524 618 l-501 502 501 503 c429 430
502 508 512 543 27 95 8 169 -63 239 -70 70 -150 91 -245 62z M3360 3907 c-19 -6 -58 -34 -85 -62 -71 -70 -90 -144 -63 -239 10
-35 83 -113 512 -543 l501 -503 -501 -502 c-532 -534 -524 -525 -524 -618 0
-126 114 -240 240 -240 97 0 84 -11 731 638 564 564 607 610 619 655 15 55 10
119 -14 168 -9 20 -270 288 -619 635 -518 517 -608 602 -643 612 -50 14 -107
14 -154 -1z" fill="#2B2A2A"/>
</g>
</svg>
